<!-- Generated by IcoMoon.io -->
<svg version="1.1" xmlns="http://www.w3.org/2000/svg" width="20" height="20" viewBox="0 0 20 20">
<title>author</title>
<path fill="#d81823" d="M10 17.5c-4.142 0-7.5-3.358-7.5-7.5s3.358-7.5 7.5-7.5v0c4.142 0 7.5 3.358 7.5 7.5s-3.358 7.5-7.5 7.5v0zM7.75 7v1.5c0 1.243 1.007 2.25 2.25 2.25s2.25-1.007 2.25-2.25v0-1.5c0-1.243-1.007-2.25-2.25-2.25s-2.25 1.007-2.25 2.25v0zM5.012 13.33c1.092 1.616 2.917 2.665 4.988 2.665s3.896-1.048 4.974-2.643l0.014-0.021c-1.464-0.688-3.179-1.090-4.988-1.090s-3.524 0.402-5.061 1.121l0.073-0.031z"></path>
</svg>
