<?xml version="1.0" encoding="utf-8"?>
<svg width="1601px" height="811px" viewbox="0 0 1601 811" version="1.1" xmlns:xlink="http://www.w3.org/1999/xlink" xmlns="http://www.w3.org/2000/svg">
  <defs>
    <linearGradient x1="0.9473509" y1="1" x2="0.022940371" y2="0" id="gradient_1">
      <stop offset="0" stop-color="#F1ECDF" />
      <stop offset="1" stop-color="#FDFBF9" />
    </linearGradient>
  </defs>
  <path d="M49.999 0L1550 0Q1551.23 0 1552.45 0.060226Q1553.68 0.120452 1554.9 0.240759Q1556.12 0.361066 1557.34 0.541164Q1558.55 0.721262 1559.76 0.960717Q1560.96 1.20017 1562.15 1.49841Q1563.34 1.79664 1564.51 2.15294Q1565.69 2.50924 1566.84 2.92274Q1568 3.33624 1569.13 3.80595Q1570.27 4.27565 1571.38 4.80044Q1572.49 5.32522 1573.57 5.90382Q1574.65 6.48241 1575.71 7.11343Q1576.76 7.74444 1577.78 8.42635Q1578.8 9.10826 1579.79 9.83943Q1580.77 10.5706 1581.72 11.3492Q1582.67 12.1279 1583.58 12.9522Q1584.49 13.7765 1585.36 14.6444Q1586.22 15.5123 1587.05 16.4217Q1587.87 17.3312 1588.65 18.28Q1589.43 19.2288 1590.16 20.2146Q1590.89 21.2005 1591.57 22.221Q1592.26 23.2416 1592.89 24.2944Q1593.52 25.3472 1594.1 26.4296Q1594.67 27.5121 1595.2 28.6217Q1595.72 29.7312 1596.19 30.8652Q1596.66 31.9992 1597.08 33.1548Q1597.49 34.3105 1597.85 35.4851Q1598.2 36.6596 1598.5 37.8502Q1598.8 39.0409 1599.04 40.2447Q1599.28 41.4485 1599.46 42.6626Q1599.64 43.8767 1599.76 45.0982Q1599.88 46.3197 1599.94 47.5457Q1600 48.7716 1600 49.999L1600 760.001Q1600 761.228 1599.94 762.454Q1599.88 763.68 1599.76 764.902Q1599.64 766.123 1599.46 767.337Q1599.28 768.551 1599.04 769.755Q1598.8 770.959 1598.5 772.15Q1598.2 773.34 1597.85 774.515Q1597.49 775.689 1597.08 776.845Q1596.66 778.001 1596.19 779.135Q1595.72 780.269 1595.2 781.378Q1594.67 782.488 1594.1 783.57Q1593.52 784.653 1592.89 785.706Q1592.26 786.758 1591.57 787.779Q1590.89 788.799 1590.16 789.785Q1589.43 790.771 1588.65 791.72Q1587.87 792.669 1587.05 793.578Q1586.22 794.488 1585.36 795.356Q1584.49 796.224 1583.58 797.048Q1582.67 797.872 1581.72 798.651Q1580.77 799.429 1579.79 800.16Q1578.8 800.892 1577.78 801.574Q1576.76 802.255 1575.71 802.886Q1574.65 803.518 1573.57 804.096Q1572.49 804.675 1571.38 805.199Q1570.27 805.724 1569.13 806.194Q1568 806.664 1566.84 807.077Q1565.69 807.491 1564.51 807.847Q1563.34 808.203 1562.15 808.502Q1560.96 808.8 1559.76 809.039Q1558.55 809.279 1557.34 809.459Q1556.12 809.639 1554.9 809.759Q1553.68 809.879 1552.45 809.94Q1551.23 810 1550 810L49.999 810Q48.7716 810 47.5457 809.94Q46.3197 809.879 45.0982 809.759Q43.8767 809.639 42.6626 809.459Q41.4485 809.279 40.2447 809.039Q39.0409 808.8 37.8502 808.502Q36.6596 808.203 35.4851 807.847Q34.3105 807.491 33.1548 807.077Q31.9992 806.664 30.8652 806.194Q29.7312 805.724 28.6217 805.199Q27.5121 804.675 26.4296 804.096Q25.3472 803.517 24.2944 802.886Q23.2416 802.255 22.221 801.574Q21.2005 800.892 20.2146 800.16Q19.2288 799.429 18.28 798.651Q17.3312 797.872 16.4217 797.048Q15.5123 796.224 14.6444 795.356Q13.7765 794.488 12.9522 793.578Q12.1279 792.669 11.3493 791.72Q10.5706 790.771 9.83943 789.785Q9.10826 788.799 8.42635 787.779Q7.74444 786.758 7.11343 785.706Q6.48241 784.653 5.90382 783.57Q5.32522 782.488 4.80044 781.378Q4.27565 780.269 3.80595 779.135Q3.33624 778.001 2.92274 776.845Q2.50924 775.689 2.15294 774.515Q1.79664 773.34 1.49841 772.15Q1.20017 770.959 0.960717 769.755Q0.721262 768.551 0.541164 767.337Q0.361066 766.123 0.240759 764.902Q0.120452 763.68 0.060226 762.454Q0 761.228 0 760.001L0 49.999Q0 48.7716 0.060226 47.5457Q0.120452 46.3197 0.240759 45.0982Q0.361066 43.8767 0.541164 42.6626Q0.721262 41.4485 0.960717 40.2447Q1.20017 39.0409 1.49841 37.8502Q1.79664 36.6596 2.15294 35.4851Q2.50924 34.3105 2.92274 33.1548Q3.33624 31.9992 3.80595 30.8652Q4.27565 29.7312 4.80044 28.6217Q5.32522 27.5121 5.90382 26.4296Q6.48241 25.3472 7.11343 24.2944Q7.74444 23.2416 8.42635 22.221Q9.10826 21.2005 9.83943 20.2146Q10.5706 19.2288 11.3492 18.28Q12.1279 17.3312 12.9522 16.4217Q13.7765 15.5123 14.6444 14.6444Q15.5123 13.7765 16.4217 12.9522Q17.3312 12.1279 18.28 11.3493Q19.2288 10.5706 20.2146 9.83943Q21.2005 9.10826 22.221 8.42635Q23.2416 7.74444 24.2944 7.11343Q25.3472 6.48241 26.4296 5.90382Q27.5121 5.32522 28.6217 4.80044Q29.7312 4.27565 30.8652 3.80595Q31.9992 3.33624 33.1548 2.92274Q34.3105 2.50924 35.4851 2.15294Q36.6596 1.79664 37.8502 1.49841Q39.0409 1.20017 40.2447 0.960717Q41.4485 0.721262 42.6626 0.541164Q43.8767 0.361066 45.0982 0.240759Q46.3197 0.120452 47.5457 0.060226Q48.7716 0 49.999 0Z" transform="translate(0.5 0.5)" id="Rectangle" fill="url(#gradient_1)" fill-rule="evenodd" stroke="none" />
</svg>