<?xml version="1.0" encoding="utf-8"?>
<svg width="40px" height="40px" viewbox="0 0 40 40" version="1.1" xmlns:xlink="http://www.w3.org/1999/xlink" xmlns="http://www.w3.org/2000/svg">
  <g id="avatar_female">
    <g id="Group-3">
      <path d="M20 40C31.0457 40 40 31.0457 40 20C40 8.9543 31.0457 0 20 0C8.9543 0 0 8.9543 0 20C0 31.0457 8.9543 40 20 40Z" id="Oval" fill="#F59B9B" fill-rule="evenodd" stroke="none" />
      <g id="Group" transform="translate(8 3.2)">
        <path d="M12.184 0C18.9131 0 24.368 5.45481 24.368 12.184L24.368 29.6367C24.368 30.7278 23.4833 31.6125 22.3922 31.6125L1.97577 31.6125C0.884659 31.6125 0 30.7278 0 29.6367L0 12.184C0 5.45481 5.45481 0 12.184 0Z" transform="translate(0.00016159336 0)" id="Path" fill="#4D4132" fill-rule="evenodd" stroke="none" />
        <path d="M3.23187e-05 0L5.92731 0L5.92731 3.78697C5.92731 5.42372 4.60043 6.75063 2.96365 6.75063C1.32688 6.75063 0 5.42372 0 3.78697L0 0L3.23187e-05 0Z" transform="translate(9.220453 26.343727)" id="Path" fill="#E6C9AE" fill-rule="evenodd" stroke="none" />
        <path d="M9.18552e-16 2.46973C9.18552e-16 3.83367 1.10575 4.93946 2.46973 4.93946C3.83367 4.93946 4.93942 3.83367 4.93942 2.46973C4.93942 1.10578 3.83367 0 2.46973 0C1.10575 0 0 1.10578 9.18552e-16 2.46973Z" transform="translate(0.82341516 18.11132)" id="Path" fill="#F2DCC9" fill-rule="evenodd" stroke="none" />
        <path d="M1.70902e-05 1.14629C-0.00222822 1.5595 0.21691 1.94229 0.574374 2.14959C0.931839 2.35688 1.37292 2.35694 1.73044 2.14975C2.08797 1.94256 2.30721 1.55982 2.30508 1.14661C2.30181 0.512464 1.78686 8.8913e-05 1.15271 0C0.518556 -8.8913e-05 0.0034629 0.512142 1.70902e-05 1.14629L1.70902e-05 1.14629Z" transform="translate(2.1405778 19.434925)" id="Path" fill="#E89E80" fill-rule="evenodd" stroke="none" />
        <path d="M0 2.46973C0 3.83367 1.10575 4.93946 2.4697 4.93946C3.83367 4.93946 4.93942 3.83367 4.93942 2.46973C4.93942 1.10578 3.83367 0 2.4697 0C1.10575 0 0 1.10578 0 2.46973Z" transform="translate(18.60544 18.11132)" id="Path" fill="#F2DCC9" fill-rule="evenodd" stroke="none" />
        <path d="M1.70902e-05 1.14629C-0.00222822 1.5595 0.21691 1.94229 0.574374 2.14959C0.931839 2.35688 1.37292 2.35694 1.73044 2.14975C2.08797 1.94256 2.30721 1.55982 2.30508 1.14661C2.30181 0.512464 1.78686 8.8913e-05 1.15271 0C0.518557 -8.8913e-05 0.0034629 0.512142 1.70902e-05 1.14629Z" transform="translate(19.922604 19.434925)" id="Path" fill="#E89E80" fill-rule="evenodd" stroke="none" />
        <path d="M8.5617 0L8.89103 0C13.6196 0 17.4527 3.83319 17.4527 8.56173L17.4527 14.3244C17.4527 19.1438 13.5458 23.0508 8.72637 23.0508L8.5617 23.0508C3.83316 23.0508 0 19.2176 0 14.4891L0 8.56173C0 3.83319 3.83319 0 8.5617 0Z" transform="translate(3.457775 7.573817)" id="Path" fill="#F2DCC9" fill-rule="evenodd" stroke="none" />
        <path d="M10.5375 1.8371e-15C16.3572 1.8371e-15 21.075 2.17466 21.075 4.85711C21.075 7.43911 16.7039 9.55075 11.1862 9.70517L10.5375 7.90308L9.8888 9.70517C4.37142 9.55075 0 7.43931 0 4.85711C0 2.17466 4.71785 0 10.5375 1.8371e-15Z" transform="translate(1.6466364 6.0920053)" id="Path" fill="#4D4132" fill-rule="evenodd" stroke="none" />
        <path d="M0 0C0 1.63675 1.32688 2.96362 2.96365 2.96362C4.60043 2.96362 5.92731 1.63675 5.92731 0L3.23187e-05 0L0 0Z" transform="translate(9.220485 24.697285)" id="Path" fill="#E89E80" fill-rule="evenodd" stroke="none" />
        <path d="M0.617416 0C0.82202 0 0.987885 0.165865 0.987885 0.370469L0.987885 1.60533C0.987867 1.80992 0.822008 1.97577 0.617416 1.97577L0.370437 1.97577C0.165858 1.97575 1.78461e-05 1.80991 0 1.60533L0 0.370436C1.78461e-05 0.165857 0.165858 1.78461e-05 0.370437 0L0.617416 0L0.617416 0ZM2.09926 0C2.30386 0 2.46973 0.165865 2.46973 0.370469L2.46973 1.60533C2.46971 1.80992 2.30385 1.97577 2.09926 1.97577L1.85228 1.97577C1.6477 1.97575 1.48186 1.80991 1.48184 1.60533L1.48184 0.370436C1.48186 0.165857 1.6477 1.78461e-05 1.85228 0L2.09926 0L2.09926 0ZM12.8014 0C13.006 0 13.1719 0.165865 13.1719 0.370469L13.1719 1.60533C13.1718 1.80992 13.006 1.97577 12.8014 1.97577L12.5545 1.97577C12.3499 1.97577 12.184 1.80992 12.184 1.60533L12.184 0.370436C12.184 0.165845 12.3499 -7.78506e-10 12.5545 0L12.8014 0L12.8014 0ZM14.2832 0C14.4878 0 14.6537 0.165865 14.6537 0.370469L14.6537 1.60533C14.6537 1.80992 14.4878 1.97577 14.2832 1.97577L14.0363 1.97577C13.8317 1.97575 13.6658 1.80991 13.6658 1.60533L13.6658 0.370436C13.6658 0.165857 13.8317 1.78461e-05 14.0363 0L14.2832 0Z" transform="translate(4.9396186 21.568933)" id="Shape" fill="#F5B196" stroke="none" />
        <path d="M4.22134 0.895364L4.24258 0.917115C4.26068 0.933274 4.27797 0.950855 4.29445 0.969956C4.49169 1.19932 4.49631 1.56565 4.30466 1.78843C4.11812 2.00528 3.81432 2.00609 3.61644 1.79421L3.60044 1.77656L3.59882 1.77873C2.81542 0.951211 1.62467 0.948237 0.879625 1.78432L0.855095 1.81231C0.663445 2.03492 0.348338 2.02965 0.150904 1.80029C-0.0410693 1.57703 -0.0504417 1.22385 0.126018 0.999753L0.140885 0.981817C1.23381 -0.28863 2.99721 -0.322532 4.1856 0.859167L4.22134 0.895364L4.22134 0.895364ZM13.6063 0.895364L13.6275 0.917115C13.6456 0.933274 13.663 0.950855 13.6794 0.969956C13.8766 1.19932 13.8813 1.56565 13.6896 1.78843C13.5031 2.00528 13.1993 2.00609 13.0014 1.79421L12.9854 1.77656L12.9838 1.77873C12.2004 0.951211 11.0096 0.948237 10.2646 1.78432L10.2401 1.81231C10.0484 2.03492 9.73329 2.02965 9.53586 1.80029C9.34389 1.57703 9.33451 1.22385 9.51097 0.999753L9.52584 0.981817C10.6188 -0.28863 12.3822 -0.322532 13.5706 0.859167L13.6063 0.895364L13.6063 0.895364Z" transform="translate(5.214158 16.749985)" id="Shape" fill="#4D4132" stroke="none" />
        <path d="M1.68768 0.157554C4.99052 0.679985 7.66373 2.74796 9.08449 5.50616L9.08006 5.50927C9.19594 5.67643 9.24273 5.88191 9.21063 6.08276C9.14177 6.51479 8.73583 6.80929 8.30377 6.74067C7.98142 6.68984 7.72319 6.44661 7.65319 6.12788C6.45407 3.80963 4.22192 2.06251 1.46077 1.5798L1.31986 1.5564L0.46568 1.42141L0.467942 1.40706C0.147269 1.28736 -0.0446857 0.958313 0.00894111 0.620253C0.0625679 0.282193 0.346929 0.0287095 0.688905 0.0141233L0.691232 0L1.68768 0.157554L1.68768 0.157554ZM8.2326 8.31472C8.2326 8.63825 8.4052 8.9372 8.68538 9.09897C8.96557 9.26073 9.31077 9.26073 9.59095 9.09897C9.87114 8.9372 10.0437 8.63825 10.0437 8.31472C10.0437 7.99119 9.87114 7.69224 9.59095 7.53048C9.31077 7.36871 8.96557 7.36871 8.68538 7.53048C8.4052 7.69224 8.2326 7.99119 8.2326 8.31472Z" transform="translate(11.854651 1.5580833)" id="Shape" fill="#807567" stroke="none" />
      </g>
    </g>
  </g>
</svg>