<?xml version="1.0" encoding="utf-8"?>
<svg width="76px" height="76px" viewbox="0 0 76 76" version="1.1" xmlns:xlink="http://www.w3.org/1999/xlink" xmlns="http://www.w3.org/2000/svg">
  <g id="Group">
    <path d="M37.999 0L38.001 0Q38.9338 0 39.8655 0.0457715Q40.7972 0.0915429 41.7256 0.182976Q42.6539 0.274408 43.5766 0.411282Q44.4993 0.548155 45.4142 0.73014Q46.3291 0.912125 47.234 1.13878Q48.1389 1.36544 49.0315 1.63622Q49.9242 1.90701 50.8025 2.22127Q51.6808 2.53553 52.5426 2.8925Q53.4044 3.24948 54.2477 3.64831Q55.0909 4.04714 55.9136 4.48687Q56.7363 4.9266 57.5364 5.40617Q58.3365 5.88574 59.1121 6.40399Q59.8877 6.92223 60.637 7.47792Q61.3862 8.0336 62.1073 8.62538Q62.8284 9.21715 63.5196 9.8436Q64.2107 10.47 64.8703 11.1296Q65.53 11.7893 66.1564 12.4804Q66.7828 13.1716 67.3746 13.8927Q67.9664 14.6138 68.5221 15.363Q69.0778 16.1123 69.596 16.8879Q70.1143 17.6635 70.5938 18.4636Q71.0734 19.2637 71.5131 20.0864Q71.9528 20.9091 72.3517 21.7523Q72.7505 22.5956 73.1075 23.4574Q73.4645 24.3192 73.7787 25.1975Q74.093 26.0758 74.3638 26.9685Q74.6345 27.8611 74.8612 28.766Q75.0879 29.6709 75.2699 30.5858Q75.4518 31.5007 75.5887 32.4234Q75.7256 33.3461 75.817 34.2744Q75.9084 35.2028 75.9542 36.1345Q76 37.0662 76 37.999L76 38.001Q76 38.9338 75.9542 39.8655Q75.9084 40.7972 75.817 41.7256Q75.7256 42.6539 75.5887 43.5766Q75.4518 44.4993 75.2699 45.4142Q75.0879 46.3291 74.8612 47.234Q74.6345 48.1389 74.3638 49.0315Q74.093 49.9242 73.7787 50.8025Q73.4645 51.6808 73.1075 52.5426Q72.7505 53.4044 72.3517 54.2477Q71.9528 55.0909 71.5131 55.9136Q71.0734 56.7363 70.5938 57.5364Q70.1143 58.3365 69.596 59.1121Q69.0778 59.8877 68.5221 60.637Q67.9664 61.3862 67.3746 62.1073Q66.7828 62.8284 66.1564 63.5196Q65.53 64.2107 64.8703 64.8703Q64.2107 65.53 63.5196 66.1564Q62.8284 66.7828 62.1073 67.3746Q61.3862 67.9664 60.637 68.5221Q59.8877 69.0778 59.1121 69.596Q58.3365 70.1143 57.5364 70.5938Q56.7363 71.0734 55.9136 71.5131Q55.0909 71.9528 54.2477 72.3517Q53.4044 72.7505 52.5426 73.1075Q51.6808 73.4645 50.8025 73.7787Q49.9242 74.093 49.0315 74.3638Q48.1389 74.6345 47.234 74.8612Q46.3291 75.0879 45.4142 75.2699Q44.4993 75.4518 43.5766 75.5887Q42.6539 75.7256 41.7256 75.817Q40.7972 75.9084 39.8655 75.9542Q38.9338 76 38.001 76L37.999 76Q37.0662 76 36.1345 75.9542Q35.2028 75.9084 34.2744 75.817Q33.3461 75.7256 32.4234 75.5887Q31.5007 75.4518 30.5858 75.2699Q29.6709 75.0879 28.766 74.8612Q27.8611 74.6345 26.9685 74.3638Q26.0758 74.093 25.1975 73.7787Q24.3192 73.4645 23.4574 73.1075Q22.5956 72.7505 21.7523 72.3517Q20.9091 71.9528 20.0864 71.5131Q19.2637 71.0734 18.4636 70.5938Q17.6635 70.1143 16.8879 69.596Q16.1123 69.0778 15.363 68.5221Q14.6138 67.9664 13.8927 67.3746Q13.1716 66.7828 12.4804 66.1564Q11.7893 65.53 11.1296 64.8703Q10.47 64.2107 9.8436 63.5196Q9.21715 62.8284 8.62538 62.1073Q8.0336 61.3862 7.47792 60.637Q6.92223 59.8877 6.40399 59.1121Q5.88574 58.3365 5.40617 57.5364Q4.9266 56.7363 4.48687 55.9136Q4.04714 55.0909 3.64831 54.2477Q3.24948 53.4044 2.8925 52.5426Q2.53553 51.6808 2.22127 50.8025Q1.90701 49.9242 1.63622 49.0315Q1.36544 48.1389 1.13878 47.234Q0.912125 46.3291 0.73014 45.4142Q0.548155 44.4993 0.411282 43.5766Q0.274408 42.6539 0.182976 41.7256Q0.0915429 40.7972 0.0457715 39.8655Q0 38.9338 0 38.001L0 37.999Q0 37.0662 0.0457715 36.1345Q0.0915429 35.2028 0.182976 34.2744Q0.274408 33.3461 0.411282 32.4234Q0.548155 31.5007 0.73014 30.5858Q0.912125 29.6709 1.13878 28.766Q1.36544 27.8611 1.63622 26.9685Q1.90701 26.0758 2.22127 25.1975Q2.53553 24.3192 2.8925 23.4574Q3.24948 22.5956 3.64831 21.7523Q4.04714 20.9091 4.48687 20.0864Q4.9266 19.2637 5.40617 18.4636Q5.88574 17.6635 6.40399 16.8879Q6.92223 16.1123 7.47792 15.363Q8.0336 14.6138 8.62538 13.8927Q9.21715 13.1716 9.8436 12.4804Q10.47 11.7893 11.1296 11.1296Q11.7893 10.47 12.4804 9.8436Q13.1716 9.21715 13.8927 8.62538Q14.6138 8.0336 15.363 7.47792Q16.1123 6.92223 16.8879 6.40399Q17.6635 5.88574 18.4636 5.40617Q19.2637 4.9266 20.0864 4.48687Q20.9091 4.04714 21.7523 3.64831Q22.5956 3.24948 23.4574 2.8925Q24.3192 2.53553 25.1975 2.22127Q26.0758 1.90701 26.9685 1.63622Q27.8611 1.36544 28.766 1.13878Q29.6709 0.912125 30.5858 0.73014Q31.5007 0.548155 32.4234 0.411282Q33.3461 0.274408 34.2744 0.182976Q35.2028 0.0915429 36.1345 0.0457715Q37.0662 0 37.999 0Z" id="Rectangle" fill="#7D70CE" fill-rule="evenodd" stroke="none" />
  </g>
  <g id="Outlined-Navigation-apps" transform="translate(18 18)">
    <path d="M0 0L40 0L40 40L0 40L0 0Z" id="Path" fill="none" fill-rule="evenodd" stroke="none" />
    <path d="M0 6.66667L6.66667 6.66667L6.66667 0L0 0L0 6.66667ZM10 26.6667L16.6667 26.6667L16.6667 20L10 20L10 26.6667ZM0 26.6667L6.66667 26.6667L6.66667 20L0 20L0 26.6667ZM0 16.6667L6.66667 16.6667L6.66667 10L0 10L0 16.6667ZM10 16.6667L16.6667 16.6667L16.6667 10L10 10L10 16.6667ZM20 0L20 6.66667L26.6667 6.66667L26.6667 0L20 0ZM10 6.66667L16.6667 6.66667L16.6667 0L10 0L10 6.66667ZM20 16.6667L26.6667 16.6667L26.6667 10L20 10L20 16.6667ZM20 26.6667L26.6667 26.6667L26.6667 20L20 20L20 26.6667Z" transform="translate(6.6666665 6.6666665)" id="🎨-Shape-Color" fill="#F7F7F7" fill-rule="evenodd" stroke="none" />
  </g>
</svg>