<?xml version="1.0" encoding="utf-8"?>
<svg width="40px" height="40px" viewbox="0 0 40 40" version="1.1" xmlns:xlink="http://www.w3.org/1999/xlink" xmlns="http://www.w3.org/2000/svg">
  <g id="avatar_male">
    <g id="Group-3">
      <path d="M20 40C31.0457 40 40 31.0457 40 20C40 8.9543 31.0457 0 20 0C8.9543 0 0 8.9543 0 20C0 31.0457 8.9543 40 20 40Z" id="Oval" fill="#9BC2F5" fill-rule="evenodd" stroke="none" />
      <g id="Group" transform="translate(7.2000003 6.4)">
        <path d="M0 0L6.50847 0L6.50847 4.15819C6.50847 5.95544 5.0513 7.41243 3.25424 7.41243C1.45681 7.41243 1.77636e-15 5.95544 1.77636e-15 4.15819L1.77636e-15 0L0 0Z" transform="translate(10.942169 24.58757)" id="Path" fill="#C5AC95" fill-rule="evenodd" stroke="none" />
        <path d="M0 2.87982C0 4.47042 1.2894 5.75982 2.88 5.75982C4.47042 5.75982 5.75982 4.47042 5.75982 2.87982C5.75982 1.2894 4.47042 0 2.87982 0C1.2894 0 8.88178e-16 1.2894 8.88178e-16 2.88L0 2.87982Z" transform="translate(1.4106892 14.804069)" id="Path" fill="#C9AB90" fill-rule="evenodd" stroke="none" />
        <path d="M0 4.42938C8.88178e-16 6.87566 1.9831 8.85876 4.42938 8.85876C6.87566 8.85876 8.85876 6.87566 8.85876 4.42938C8.85876 1.9831 6.87566 0 4.42938 0C1.9831 0 8.88178e-16 1.9831 0 4.42938Z" transform="translate(1.8389832 5.60452)" id="Path" fill="#4D4132" fill-rule="evenodd" stroke="none" />
        <path d="M9.40113 0L9.76271 0C14.9548 0 19.1638 4.20899 19.1638 9.40113L19.1638 15.9096C19.1638 21.1017 14.9548 25.3107 9.76271 25.3107L9.40113 25.3107C4.20899 25.3107 0 21.1017 0 15.9096L0 9.40113C0 4.20899 4.20899 0 9.40113 0Z" transform="translate(3.6468925 3.977401)" id="Path" fill="#EBD3BD" fill-rule="evenodd" stroke="none" />
        <path d="M0 0L19.3446 0C21.9408 0 24.0452 2.10441 24.0452 4.70056L24.0452 8.85876L4.70056 8.85876C2.10441 8.85876 0 6.75435 0 4.15819L0 0Z" transform="translate(0.031073436 0)" id="Path" fill="#4D4132" fill-rule="evenodd" stroke="none" />
        <path d="M7.05085 0L7.05085 9.31073C7.05085 11.2579 5.47254 12.8362 3.52542 12.8362L1.44633 12.8362C0.647543 12.8362 0 12.1886 0 11.3898L0 0L7.05085 0Z" transform="translate(19.827684 4.4293785)" id="Path" fill="#4D4132" fill-rule="evenodd" stroke="none" />
        <path d="M0 0C0 1.99702 1.6188 3.61582 3.61582 3.61582C5.61284 3.61582 7.23164 1.99702 7.23164 0L0 0Z" transform="translate(7.624294 22.59887)" id="Path" fill="#E89E80" fill-rule="evenodd" stroke="none" />
        <path d="M0.000180781 2.87982C0.000180781 4.47042 1.28958 5.75982 2.88 5.75982C4.47042 5.75982 5.76 4.47042 5.76 2.87982C5.76 1.2894 4.47042 -3.125e-08 2.88 0C1.28958 3.125e-08 0 1.2894 0 2.88L0.000180781 2.87982Z" transform="translate(20.609604 14.623278)" id="Path" fill="#EBD3BD" fill-rule="evenodd" stroke="none" />
        <path d="M2.93567e-08 1.27973C-0.000149743 1.98665 0.572804 2.55985 1.27973 2.56C1.98665 2.56015 2.55985 1.9872 2.56 1.28027C2.56015 0.573347 1.9872 0.000149802 1.28027 2.93567e-08C0.573347 -0.000149743 0.000149802 0.572804 2.93567e-08 1.27973Z" transform="translate(22.209604 16.084158)" id="Path" fill="#E89E80" fill-rule="evenodd" stroke="none" />
        <path d="M9.07879e-05 2.55982C-0.007638 3.47951 0.478581 4.33267 1.2738 4.79476C2.06901 5.25686 3.05099 5.25686 3.84621 4.79476C4.64142 4.33267 5.12764 3.47951 5.11991 2.55982C5.11991 1.14603 3.9737 0 2.55991 0C1.14612 0 9.07879e-05 1.14621 9.07879e-05 2.56L9.07879e-05 2.55982Z" transform="translate(4.290418 12.229785)" id="Path" fill="#FFFFFF" fill-rule="evenodd" stroke="none" />
        <path d="M0 1.12C8.88179e-16 1.73856 0.501441 2.24 1.12 2.24C1.73856 2.24 2.24 1.73856 2.24 1.12C2.24 0.501441 1.73856 0 1.12 0C0.501441 0 1.84345e-08 0.501441 8.88179e-16 1.12L0 1.12Z" transform="translate(5.3897176 13.648813)" id="Path" fill="#514141" fill-rule="evenodd" stroke="none" />
        <path d="M0.000180812 2.55982C0.000180812 3.9736 1.1464 5.11982 2.56018 5.11982C3.97397 5.11982 5.11982 3.9736 5.11982 2.55982C5.11982 1.14603 3.97378 0 2.56 0C1.14621 0 0 1.14621 0 2.56L0.000180812 2.55982Z" transform="translate(13.249967 12.229785)" id="Path" fill="#FFFFFF" fill-rule="evenodd" stroke="none" />
        <path d="M0.000180781 1.12C-0.00494586 1.5235 0.207379 1.89856 0.555988 2.1018C0.904596 2.30504 1.33558 2.30504 1.68419 2.1018C2.0328 1.89856 2.24513 1.5235 2.24 1.12C2.24 0.501441 1.73856 0 1.12 0C0.501441 0 3.6869e-08 0.501441 0 1.12L0.000180781 1.12Z" transform="translate(14.3491745 13.648814)" id="Path" fill="#514141" fill-rule="evenodd" stroke="none" />
        <path d="M0.903955 0L4.88136 0C5.48399 0 5.78531 0.301318 5.78531 0.903955L5.78531 0.903955C5.78531 1.50659 5.48399 1.80791 4.88136 1.80791L0.903955 1.80791C0.301318 1.80791 0 1.50659 0 0.903955L0 0.903955C0 0.301318 0.301318 0 0.903955 0Z" transform="translate(4.008475 9.943503)" id="Path" fill="#4D4132" fill-rule="evenodd" stroke="none" />
        <path d="M1.22439 0.0753799L4.98509 1.37029C5.5549 1.56649 5.7417 1.9495 5.5455 2.5193L5.5455 2.5193C5.3493 3.0891 4.9663 3.27591 4.39649 3.07971L0.635787 1.78479C0.065983 1.58859 -0.120819 1.20559 0.0753799 0.635787L0.0753799 0.635787C0.271579 0.065983 0.654581 -0.120819 1.22439 0.0753799L1.22439 0.0753799Z" transform="translate(12.768657 9.269915)" id="Path" fill="#4D4132" fill-rule="evenodd" stroke="none" />
      </g>
    </g>
  </g>
</svg>