<?xml version="1.0" encoding="utf-8"?>
<svg width="21px" height="20px" viewbox="0 0 21 20" version="1.1" xmlns:xlink="http://www.w3.org/1999/xlink" xmlns="http://www.w3.org/2000/svg">
  <path d="M20.3063 9.15469L16.4997 12.4571C16.2601 12.6936 16.1507 13.0343 16.2073 13.3683L17.1061 18.6729C17.1764 19.0932 17.1062 19.3944 16.7657 19.6455C16.5771 19.7845 16.349 19.8595 16.1147 19.8596C15.9352 19.8595 15.7584 19.8153 15.5999 19.7307L10.7936 17.1082C10.4978 16.9506 10.143 16.9506 9.84721 17.1082L5.24262 19.7307C4.8695 19.9297 4.41781 19.8961 4.07624 19.6455C3.73578 19.3945 3.46387 19.0938 3.5353 18.6729L4.63639 13.2583C4.69296 12.9243 4.58361 12.5835 4.34394 12.347L0.335094 9.15475C0.0322934 8.85713 -0.0756457 8.41161 0.0538938 8.00587C0.184496 7.60011 0.530517 7.30478 0.947901 7.24311L6.16231 6.31669C6.49342 6.26795 6.77963 6.05744 6.92775 5.75373L9.32843 0.624889C9.51444 0.242124 9.89916 0 10.321 0C10.7429 0 11.1264 0.242103 11.3136 0.624889L13.6201 5.7536C13.7682 6.0574 14.0544 6.26799 14.3856 6.31673L19.6941 7.24313C20.1104 7.3042 20.4575 7.60013 20.5871 8.00589C20.7172 8.41163 20.6075 8.85715 20.3064 9.15479L20.3063 9.15469Z" id="Path" fill="#E0620D" fill-rule="evenodd" stroke="none" />
</svg>